<?xml version="1.0" encoding="utf-8"?>
<!-- Generator: Adobe Illustrator 22.1.0, SVG Export Plug-In . SVG Version: 6.00 Build 0)  -->
<svg version="1.1" id="LogoCircle" xmlns="http://www.w3.org/2000/svg" xmlns:xlink="http://www.w3.org/1999/xlink" x="0px" y="0px"
	 viewBox="0 0 320 320" style="enable-background:new 0 0 320 320;" xml:space="preserve">
<style type="text/css">
	.st0{fill:none;}
	.st1{fill:#4265FF;}
	.st2{fill:#FFFFFF;}
	.st3{fill:#B28500;}
</style>
<g id="Trazado_5">
	<path class="st0" d="M160,0c88.4,0,160,71.6,160,160s-71.6,160-160,160S0,248.4,0,160S71.6,0,160,0z"/>
	<path class="st1" d="M160,4c-10.6,0-21.2,1.1-31.4,3.2c-10,2-19.9,5.1-29.3,9.1C90,20.2,81.1,25,72.8,30.6
		c-8.3,5.6-16,12-23.1,19.1c-7.1,7.1-13.5,14.8-19.1,23.1C25,81.1,20.2,90,16.3,99.3c-4,9.4-7,19.3-9.1,29.3
		C5.1,138.8,4,149.4,4,160s1.1,21.2,3.2,31.4c2,10,5.1,19.9,9.1,29.3c3.9,9.2,8.7,18.2,14.4,26.5c5.6,8.3,12,16,19.1,23.1
		c7.1,7.1,14.8,13.5,23.1,19.1c8.3,5.6,17.3,10.5,26.5,14.4c9.4,4,19.3,7,29.3,9.1c10.3,2.1,20.9,3.2,31.4,3.2s21.2-1.1,31.4-3.2
		c10-2,19.9-5.1,29.3-9.1c9.2-3.9,18.2-8.7,26.5-14.4c8.3-5.6,16-12,23.1-19.1c7.1-7.1,13.5-14.8,19.1-23.1
		c5.6-8.3,10.5-17.3,14.4-26.5c4-9.4,7-19.3,9.1-29.3c2.1-10.3,3.2-20.9,3.2-31.4s-1.1-21.2-3.2-31.4c-2-10-5.1-19.9-9.1-29.3
		c-3.9-9.2-8.7-18.2-14.4-26.5c-5.6-8.3-12-16-19.1-23.1c-7.1-7.1-14.8-13.5-23.1-19.1c-8.3-5.6-17.3-10.5-26.5-14.4
		c-9.4-4-19.3-7-29.3-9.1C181.2,5.1,170.6,4,160,4 M160,0c88.4,0,160,71.6,160,160s-71.6,160-160,160S0,248.4,0,160S71.6,0,160,0z"
		/>
</g>
<g id="Capa_2_1_">
	<g id="Capa_1-2">
		<path class="st2" d="M176.7,119c-5.8,0-9.1,0.6-9.6,7.9c-0.5,7.3-3.6,14.1-6.5,21c-7.5,17.4-22.2,28.5-34.8,41.5
			c-13.7,14.3-30.5,20.1-49.7,21.2c-5.3,0-12.8,1.4-17.1,2.3c-0.7,0.2-1,0.9-0.9,1.5c0.1,0.3,0.3,0.6,0.6,0.7c2.2,1,5.1,2.3,7,2.3
			c5.6,0.2,11.6-0.8,17,1.2c14.7,5.3,29.4,3.4,43.1-2.1c17.3-6.9,33.8-5.9,50.9-0.2c9.8,3.2,20,5.4,30.5,4s15.5-7.7,13.7-18.8
			c-0.7-4-1.5-12-1.5-12s1.9-5.9,4.7-7.6c2.3,6.1,2.9,12.6,3.8,19c2.4,17-4.8,25.9-21.9,27c-12.1,0.7-23.7-2.1-35.2-5.7
			c-13.3-4.3-26.2-5.2-39.7,0.4c-13.5,5.6-27.5,8.1-41.5,5.1c-8.7-1.9-17.6-2.8-26.4-2.7c-5.3-0.1-10.3-1.5-14-5.6
			c-2.4-2.6-3.3-5.4-2.1-8.9c1.2-3.5,3.7-4.2,6.9-4.6c12.2-1.4,24.3-2.9,36.3-4.4c6-0.8,11.6-2.6,16.6-6.2
			c10-7.5,19.5-15.7,28.4-24.5c14.4-14.1,24.3-30.6,25.6-51.2c0.4-5.9,3.2-8,8.9-7.9C184.9,111.8,190.2,119,176.7,119z"/>
		<path class="st2" d="M189.4,179.2c-2.9,0-5.8,1-5.8-2.9c0-3.9,3.8-2.3,5.9-2.3c4.6-0.1,6.3-2.4,6.4-6.5c0.1-1.6-0.1-3.5,2.2-3.4
			c2.3,0.1,2.9,1.9,3,4C201.5,174.2,196.7,179.1,189.4,179.2z"/>
		<path class="st3" d="M235.6,90.9L243,93l-53.5,71.1l-7.2-1.9L235.6,90.9z"/>
		<path class="st3" d="M265.9,98.6l7.5,2.6l-53.6,71l-7.3-2.3L265.9,98.6z"/>
	</g>
</g>
</svg>
