<svg xmlns="http://www.w3.org/2000/svg" viewBox="0 0 309.7 188.5"><title>_Blanco</title><g id="Capa_2" data-name="Capa 2"><g id="Capa_1-2" data-name="Capa 1"><path d="M177.6,38.3c-7.9,0-12.4.8-13.1,10.8s-4.9,19.3-8.9,28.6c-10.2,23.7-30.3,38.9-47.5,56.7-18.7,19.5-41.6,27.4-67.8,28.9-7.2,0-17.5,1.9-23.3,3.1a1.7,1.7,0,0,0-.4,3.1c3,1.4,7,3.1,9.6,3.2,7.7.3,15.8-1.1,23.2,1.6,20.1,7.3,40.1,4.7,58.8-2.8,23.6-9.4,46.1-8,69.5-.3,13.4,4.4,27.3,7.4,41.6,5.5s21.2-10.5,18.7-25.6c-.9-5.4-2-16.4-2-16.4s2.6-8,6.4-10.4c3.2,8.3,4,17.2,5.2,25.9,3.3,23.2-6.6,35.4-29.9,36.9-16.5,1-32.4-2.8-48-7.8-18.2-5.9-35.8-7.1-54.2.5S78,190.9,58.8,186.7A163.3,163.3,0,0,0,22.7,183c-7.2-.1-14-2.1-19.1-7.6C.3,171.9-.9,168,.7,163.2s5.1-5.8,9.4-6.3c16.6-1.9,33.1-4,49.6-6,8.2-1.1,15.8-3.5,22.6-8.5A374.8,374.8,0,0,0,121,108.9c19.6-19.2,33.1-41.7,34.9-69.9.5-8,4.4-10.9,12.1-10.8C188.8,28.4,196.1,38.3,177.6,38.3Z" style="fill:#fff"/><path d="M195,120.4c-4,0-7.9,1.3-7.9-4s5.2-3.1,8.1-3.1c6.3-.2,8.6-3.3,8.8-8.9.1-2.2-.2-4.8,3-4.7s4,2.6,4.1,5.4C211.5,113.7,205,120.3,195,120.4Z" style="fill:#fff"/><path d="M258.1,0l10,2.8-73,97.1-9.8-2.6Z" style="fill:#b28500"/><path d="M299.4,10.4,309.7,14l-73.2,96.9-10-3.2Z" style="fill:#b28500"/></g></g></svg>